<?xml version="1.0" ?><!DOCTYPE svg  PUBLIC '-//W3C//DTD SVG 1.1//EN'  'http://www.w3.org/Graphics/SVG/1.1/DTD/svg11.dtd'><svg enable-background="new 0 0 512 512" height="512px" version="1.1" viewBox="0 0 512 512" width="512px" xml:space="preserve" xmlns="http://www.w3.org/2000/svg" xmlns:xlink="http://www.w3.org/1999/xlink"><g><g id="Guides"/><g id="Layer_2"><g><path d="M508,256.879c0,138.066-111.934,250-250,250c-138.067,0-250-111.934-250-250      c0-138.067,111.933-250,250-250C396.066,6.879,508,118.812,508,256.879L508,256.879z M508,256.879" fill="#4D77A2"/><path clip-rule="evenodd" d="M248.557,366.527h19.627c0,0,5.919-0.647,8.943-3.917      c2.78-2.997,2.698-8.617,2.698-8.617s-0.392-26.329,11.837-30.202c12.056-3.83,27.505,25.438,43.912,36.687      c12.403,8.53,21.825,6.659,21.825,6.659l43.824-0.609c0,0,22.936-1.414,12.056-19.448c-0.893-1.485-6.332-13.344-32.597-37.715      c-27.482-25.503-23.806-21.391,9.313-65.52c20.171-26.874,28.223-43.278,25.72-50.309c-2.415-6.702-17.233-4.917-17.233-4.917      l-49.374,0.304c0,0-3.655-0.5-6.375,1.11c-2.655,1.588-4.353,5.31-4.353,5.31s-7.812,20.805-18.234,38.469      c-21.978,37.343-30.769,39.301-34.359,36.995c-8.355-5.419-6.267-21.714-6.267-33.291c0-36.17,5.483-51.25-10.685-55.142      c-5.353-1.303-9.313-2.157-23.021-2.285c-17.625-0.196-32.531,0.046-40.974,4.178c-5.614,2.742-9.944,8.881-7.311,9.226      c3.264,0.433,10.662,2.004,14.579,7.336c5.048,6.874,4.874,22.32,4.874,22.32s2.916,42.587-6.789,47.874      c-6.659,3.64-15.776-3.786-35.382-37.647c-10.031-17.34-17.604-36.508-17.604-36.508s-1.458-3.571-4.069-5.489      c-3.177-2.329-7.594-3.063-7.594-3.063l-46.895,0.302c0,0-7.048,0.193-9.637,3.264c-2.285,2.717-0.171,8.356-0.171,8.356      s36.707,85.909,78.29,129.194C205.254,369.139,248.557,366.527,248.557,366.527L248.557,366.527z M248.557,366.527" fill="#FFFFFF" fill-rule="evenodd"/></g></g></g></svg>